<svg xmlns="http://www.w3.org/2000/svg" xmlns:xlink="http://www.w3.org/1999/xlink" width="673" zoomAndPan="magnify" viewBox="0 0 504.75 76.499998" height="102" preserveAspectRatio="xMidYMid meet" version="1.0"><defs><g/></defs><g fill="#222222" fill-opacity="1"><g transform="translate(9.501479, 60.589787)"><g><path d="M 14.953125 -28.1875 L 14.953125 0 L 6.09375 0 L 6.09375 -28.1875 L 1.109375 -28.1875 L 1.109375 -34.1875 L 6.09375 -34.1875 L 6.09375 -37.765625 C 6.09375 -39.066406 6.25 -40.269531 6.5625 -41.375 C 6.882812 -42.488281 7.425781 -43.453125 8.1875 -44.265625 C 8.945312 -45.085938 9.96875 -45.726562 11.25 -46.1875 C 12.53125 -46.65625 14.128906 -46.890625 16.046875 -46.890625 C 17.054688 -46.890625 18.050781 -46.835938 19.03125 -46.734375 C 20.019531 -46.628906 20.898438 -46.515625 21.671875 -46.390625 L 21.671875 -40.671875 C 21.296875 -40.753906 20.867188 -40.820312 20.390625 -40.875 C 19.921875 -40.925781 19.488281 -40.953125 19.09375 -40.953125 C 18.269531 -40.953125 17.585938 -40.867188 17.046875 -40.703125 C 16.515625 -40.535156 16.09375 -40.28125 15.78125 -39.9375 C 15.476562 -39.601562 15.265625 -39.175781 15.140625 -38.65625 C 15.015625 -38.144531 14.953125 -37.550781 14.953125 -36.875 L 14.953125 -34.1875 L 21.671875 -34.1875 L 21.671875 -28.1875 Z M 14.953125 -28.1875 "/></g></g></g><g fill="#222222" fill-opacity="1"><g transform="translate(31.050372, 60.589787)"><g><path d="M 37 -17.125 C 37 -14.507812 36.632812 -12.117188 35.90625 -9.953125 C 35.1875 -7.785156 34.097656 -5.914062 32.640625 -4.34375 C 31.191406 -2.769531 29.378906 -1.546875 27.203125 -0.671875 C 25.035156 0.191406 22.507812 0.625 19.625 0.625 C 16.84375 0.625 14.382812 0.195312 12.25 -0.65625 C 10.125 -1.519531 8.335938 -2.734375 6.890625 -4.296875 C 5.453125 -5.859375 4.363281 -7.726562 3.625 -9.90625 C 2.894531 -12.082031 2.53125 -14.488281 2.53125 -17.125 C 2.53125 -19.675781 2.878906 -22.03125 3.578125 -24.1875 C 4.285156 -26.34375 5.351562 -28.210938 6.78125 -29.796875 C 8.21875 -31.378906 10.019531 -32.613281 12.1875 -33.5 C 14.363281 -34.382812 16.90625 -34.828125 19.8125 -34.828125 C 22.882812 -34.828125 25.503906 -34.382812 27.671875 -33.5 C 29.847656 -32.613281 31.625 -31.382812 33 -29.8125 C 34.382812 -28.25 35.394531 -26.382812 36.03125 -24.21875 C 36.675781 -22.0625 37 -19.695312 37 -17.125 Z M 27.71875 -17.125 C 27.71875 -21.195312 27.050781 -24.144531 25.71875 -25.96875 C 24.394531 -27.800781 22.46875 -28.71875 19.9375 -28.71875 C 17.320312 -28.71875 15.316406 -27.789062 13.921875 -25.9375 C 12.535156 -24.082031 11.84375 -21.144531 11.84375 -17.125 C 11.84375 -15.082031 12.023438 -13.320312 12.390625 -11.84375 C 12.765625 -10.375 13.289062 -9.164062 13.96875 -8.21875 C 14.644531 -7.269531 15.457031 -6.566406 16.40625 -6.109375 C 17.351562 -5.660156 18.394531 -5.4375 19.53125 -5.4375 C 20.832031 -5.4375 21.992188 -5.660156 23.015625 -6.109375 C 24.035156 -6.566406 24.894531 -7.269531 25.59375 -8.21875 C 26.289062 -9.164062 26.816406 -10.375 27.171875 -11.84375 C 27.535156 -13.320312 27.71875 -15.082031 27.71875 -17.125 Z M 27.71875 -17.125 "/></g></g></g><g fill="#222222" fill-opacity="1"><g transform="translate(70.57774, 60.589787)"><g><path d="M 4.515625 0 L 4.515625 -26.171875 C 4.515625 -26.898438 4.507812 -27.675781 4.5 -28.5 C 4.488281 -29.320312 4.46875 -30.109375 4.4375 -30.859375 C 4.40625 -31.609375 4.378906 -32.28125 4.359375 -32.875 C 4.335938 -33.476562 4.304688 -33.914062 4.265625 -34.1875 L 12.734375 -34.1875 C 12.773438 -33.9375 12.816406 -33.5 12.859375 -32.875 C 12.898438 -32.257812 12.941406 -31.582031 12.984375 -30.84375 C 13.023438 -30.101562 13.0625 -29.367188 13.09375 -28.640625 C 13.125 -27.921875 13.140625 -27.335938 13.140625 -26.890625 L 13.265625 -26.890625 C 13.710938 -28.128906 14.15625 -29.238281 14.59375 -30.21875 C 15.039062 -31.207031 15.5625 -32.039062 16.15625 -32.71875 C 16.757812 -33.40625 17.484375 -33.929688 18.328125 -34.296875 C 19.171875 -34.671875 20.210938 -34.859375 21.453125 -34.859375 C 21.984375 -34.859375 22.503906 -34.8125 23.015625 -34.71875 C 23.535156 -34.625 23.929688 -34.507812 24.203125 -34.375 L 24.203125 -26.953125 C 23.640625 -27.078125 23.066406 -27.1875 22.484375 -27.28125 C 21.898438 -27.375 21.210938 -27.421875 20.421875 -27.421875 C 18.203125 -27.421875 16.476562 -26.523438 15.25 -24.734375 C 14.019531 -22.953125 13.40625 -20.300781 13.40625 -16.78125 L 13.40625 0 Z M 4.515625 0 "/></g></g></g><g fill="#222222" fill-opacity="1"><g transform="translate(95.760243, 60.589787)"><g><path d="M 13.265625 0.5625 C 10.660156 0.5625 8.648438 -0.144531 7.234375 -1.5625 C 5.828125 -2.988281 5.125 -5.144531 5.125 -8.03125 L 5.125 -28.1875 L 0.796875 -28.1875 L 0.796875 -34.1875 L 5.5625 -34.1875 L 8.34375 -42.21875 L 13.90625 -42.21875 L 13.90625 -34.1875 L 20.375 -34.1875 L 20.375 -28.1875 L 13.90625 -28.1875 L 13.90625 -10.421875 C 13.90625 -8.765625 14.21875 -7.539062 14.84375 -6.75 C 15.476562 -5.957031 16.460938 -5.5625 17.796875 -5.5625 C 18.335938 -5.5625 18.828125 -5.601562 19.265625 -5.6875 C 19.710938 -5.769531 20.210938 -5.875 20.765625 -6 L 20.765625 -0.5 C 19.671875 -0.144531 18.507812 0.117188 17.28125 0.296875 C 16.0625 0.472656 14.722656 0.5625 13.265625 0.5625 Z M 13.265625 0.5625 "/></g></g></g><g fill="#222222" fill-opacity="1"><g transform="translate(117.309136, 60.589787)"><g><path d="M 22.125 1.796875 C 21.300781 3.796875 20.46875 5.523438 19.625 6.984375 C 18.78125 8.441406 17.847656 9.648438 16.828125 10.609375 C 15.804688 11.566406 14.65625 12.273438 13.375 12.734375 C 12.101562 13.203125 10.625 13.4375 8.9375 13.4375 C 8.007812 13.4375 7.0625 13.398438 6.09375 13.328125 C 5.125 13.265625 4.207031 13.160156 3.34375 13.015625 L 3.34375 6.703125 C 3.769531 6.765625 4.28125 6.820312 4.875 6.875 C 5.476562 6.925781 5.992188 6.953125 6.421875 6.953125 C 7.273438 6.953125 8.039062 6.859375 8.71875 6.671875 C 9.394531 6.484375 10.003906 6.164062 10.546875 5.71875 C 11.097656 5.28125 11.609375 4.691406 12.078125 3.953125 C 12.554688 3.210938 13.019531 2.285156 13.46875 1.171875 L 14.03125 -0.34375 L 0.5 -34.1875 L 9.890625 -34.1875 L 15.265625 -18.171875 C 15.347656 -17.941406 15.476562 -17.550781 15.65625 -17 C 15.832031 -16.457031 16.03125 -15.832031 16.25 -15.125 C 16.476562 -14.414062 16.707031 -13.671875 16.9375 -12.890625 C 17.164062 -12.109375 17.382812 -11.363281 17.59375 -10.65625 C 17.8125 -9.957031 17.992188 -9.332031 18.140625 -8.78125 C 18.285156 -8.238281 18.390625 -7.847656 18.453125 -7.609375 C 18.515625 -7.847656 18.613281 -8.234375 18.75 -8.765625 C 18.882812 -9.304688 19.039062 -9.914062 19.21875 -10.59375 C 19.40625 -11.28125 19.601562 -12.003906 19.8125 -12.765625 C 20.019531 -13.523438 20.21875 -14.25 20.40625 -14.9375 C 20.601562 -15.632812 20.78125 -16.265625 20.9375 -16.828125 C 21.09375 -17.390625 21.210938 -17.796875 21.296875 -18.046875 L 26.359375 -34.1875 L 35.640625 -34.1875 Z M 22.125 1.796875 "/></g></g></g><g fill="#222222" fill-opacity="1"><g transform="translate(153.297682, 60.589787)"><g><path d="M 37 -17.125 C 37 -14.507812 36.632812 -12.117188 35.90625 -9.953125 C 35.1875 -7.785156 34.097656 -5.914062 32.640625 -4.34375 C 31.191406 -2.769531 29.378906 -1.546875 27.203125 -0.671875 C 25.035156 0.191406 22.507812 0.625 19.625 0.625 C 16.84375 0.625 14.382812 0.195312 12.25 -0.65625 C 10.125 -1.519531 8.335938 -2.734375 6.890625 -4.296875 C 5.453125 -5.859375 4.363281 -7.726562 3.625 -9.90625 C 2.894531 -12.082031 2.53125 -14.488281 2.53125 -17.125 C 2.53125 -19.675781 2.878906 -22.03125 3.578125 -24.1875 C 4.285156 -26.34375 5.351562 -28.210938 6.78125 -29.796875 C 8.21875 -31.378906 10.019531 -32.613281 12.1875 -33.5 C 14.363281 -34.382812 16.90625 -34.828125 19.8125 -34.828125 C 22.882812 -34.828125 25.503906 -34.382812 27.671875 -33.5 C 29.847656 -32.613281 31.625 -31.382812 33 -29.8125 C 34.382812 -28.25 35.394531 -26.382812 36.03125 -24.21875 C 36.675781 -22.0625 37 -19.695312 37 -17.125 Z M 27.71875 -17.125 C 27.71875 -21.195312 27.050781 -24.144531 25.71875 -25.96875 C 24.394531 -27.800781 22.46875 -28.71875 19.9375 -28.71875 C 17.320312 -28.71875 15.316406 -27.789062 13.921875 -25.9375 C 12.535156 -24.082031 11.84375 -21.144531 11.84375 -17.125 C 11.84375 -15.082031 12.023438 -13.320312 12.390625 -11.84375 C 12.765625 -10.375 13.289062 -9.164062 13.96875 -8.21875 C 14.644531 -7.269531 15.457031 -6.566406 16.40625 -6.109375 C 17.351562 -5.660156 18.394531 -5.4375 19.53125 -5.4375 C 20.832031 -5.4375 21.992188 -5.660156 23.015625 -6.109375 C 24.035156 -6.566406 24.894531 -7.269531 25.59375 -8.21875 C 26.289062 -9.164062 26.816406 -10.375 27.171875 -11.84375 C 27.535156 -13.320312 27.71875 -15.082031 27.71875 -17.125 Z M 27.71875 -17.125 "/></g></g></g><g fill="#222222" fill-opacity="1"><g transform="translate(192.825051, 60.589787)"><g><path d="M 26.671875 0 L 26.671875 -19.1875 C 26.671875 -20.507812 26.566406 -21.722656 26.359375 -22.828125 C 26.148438 -23.929688 25.800781 -24.878906 25.3125 -25.671875 C 24.820312 -26.460938 24.1875 -27.078125 23.40625 -27.515625 C 22.632812 -27.960938 21.691406 -28.1875 20.578125 -28.1875 C 19.492188 -28.1875 18.515625 -27.945312 17.640625 -27.46875 C 16.773438 -27 16.023438 -26.328125 15.390625 -25.453125 C 14.753906 -24.578125 14.265625 -23.535156 13.921875 -22.328125 C 13.578125 -21.117188 13.40625 -19.785156 13.40625 -18.328125 L 13.40625 0 L 4.515625 0 L 4.515625 -26.546875 C 4.515625 -27.285156 4.507812 -28.039062 4.5 -28.8125 C 4.488281 -29.59375 4.46875 -30.335938 4.4375 -31.046875 C 4.40625 -31.753906 4.378906 -32.382812 4.359375 -32.9375 C 4.335938 -33.5 4.304688 -33.914062 4.265625 -34.1875 L 12.734375 -34.1875 C 12.773438 -33.9375 12.816406 -33.53125 12.859375 -32.96875 C 12.898438 -32.414062 12.941406 -31.800781 12.984375 -31.125 C 13.023438 -30.445312 13.0625 -29.769531 13.09375 -29.09375 C 13.125 -28.425781 13.140625 -27.859375 13.140625 -27.390625 L 13.265625 -27.390625 C 14.472656 -30.003906 15.984375 -31.898438 17.796875 -33.078125 C 19.609375 -34.265625 21.765625 -34.859375 24.265625 -34.859375 C 26.328125 -34.859375 28.066406 -34.519531 29.484375 -33.84375 C 30.910156 -33.164062 32.070312 -32.238281 32.96875 -31.0625 C 33.863281 -29.882812 34.507812 -28.492188 34.90625 -26.890625 C 35.3125 -25.285156 35.515625 -23.554688 35.515625 -21.703125 L 35.515625 0 Z M 26.671875 0 "/></g></g></g><g fill="#222222" fill-opacity="1"><g transform="translate(232.35243, 60.589787)"><g><path d="M 18.515625 0.625 C 16.054688 0.625 13.835938 0.265625 11.859375 -0.453125 C 9.890625 -1.179688 8.207031 -2.285156 6.8125 -3.765625 C 5.425781 -5.253906 4.363281 -7.117188 3.625 -9.359375 C 2.894531 -11.609375 2.53125 -14.238281 2.53125 -17.25 C 2.53125 -20.519531 2.96875 -23.269531 3.84375 -25.5 C 4.71875 -27.738281 5.894531 -29.546875 7.375 -30.921875 C 8.863281 -32.296875 10.578125 -33.289062 12.515625 -33.90625 C 14.453125 -34.519531 16.492188 -34.828125 18.640625 -34.828125 C 21.335938 -34.828125 23.640625 -34.359375 25.546875 -33.421875 C 27.453125 -32.484375 29.015625 -31.171875 30.234375 -29.484375 C 31.460938 -27.796875 32.359375 -25.773438 32.921875 -23.421875 C 33.492188 -21.078125 33.78125 -18.484375 33.78125 -15.640625 L 33.78125 -15.390625 L 11.84375 -15.390625 C 11.84375 -13.953125 11.96875 -12.617188 12.21875 -11.390625 C 12.476562 -10.160156 12.890625 -9.097656 13.453125 -8.203125 C 14.023438 -7.304688 14.765625 -6.597656 15.671875 -6.078125 C 16.578125 -5.566406 17.671875 -5.3125 18.953125 -5.3125 C 20.515625 -5.3125 21.789062 -5.640625 22.78125 -6.296875 C 23.769531 -6.960938 24.476562 -7.992188 24.90625 -9.390625 L 33.28125 -8.65625 C 32.894531 -7.6875 32.359375 -6.65625 31.671875 -5.5625 C 30.992188 -4.46875 30.082031 -3.460938 28.9375 -2.546875 C 27.800781 -1.628906 26.382812 -0.867188 24.6875 -0.265625 C 23 0.328125 20.941406 0.625 18.515625 0.625 Z M 18.515625 -29.234375 C 17.609375 -29.234375 16.757812 -29.078125 15.96875 -28.765625 C 15.1875 -28.460938 14.503906 -27.976562 13.921875 -27.3125 C 13.335938 -26.65625 12.867188 -25.796875 12.515625 -24.734375 C 12.160156 -23.679688 11.957031 -22.421875 11.90625 -20.953125 L 25.1875 -20.953125 C 25.019531 -23.710938 24.351562 -25.78125 23.1875 -27.15625 C 22.03125 -28.539062 20.472656 -29.234375 18.515625 -29.234375 Z M 18.515625 -29.234375 "/></g></g></g><g fill="#222222" fill-opacity="1"><g transform="translate(268.340965, 60.589787)"><g/></g></g><g fill="#222222" fill-opacity="1"><g transform="translate(286.31944, 60.589787)"><g><path d="M 13.078125 0.625 C 9.648438 0.625 7.070312 -0.273438 5.34375 -2.078125 C 3.613281 -3.890625 2.75 -6.378906 2.75 -9.546875 C 2.75 -11.796875 3.175781 -13.640625 4.03125 -15.078125 C 4.882812 -16.523438 6 -17.660156 7.375 -18.484375 C 8.757812 -19.304688 10.332031 -19.875 12.09375 -20.1875 C 13.863281 -20.507812 15.664062 -20.691406 17.5 -20.734375 L 25.1875 -20.859375 L 25.1875 -22.71875 C 25.1875 -24.132812 25.035156 -25.335938 24.734375 -26.328125 C 24.441406 -27.316406 23.988281 -28.113281 23.375 -28.71875 C 22.769531 -29.332031 22.007812 -29.78125 21.09375 -30.0625 C 20.175781 -30.351562 19.097656 -30.5 17.859375 -30.5 C 16.765625 -30.5 15.773438 -30.414062 14.890625 -30.25 C 14.003906 -30.09375 13.234375 -29.804688 12.578125 -29.390625 C 11.921875 -28.984375 11.390625 -28.425781 10.984375 -27.71875 C 10.585938 -27.019531 10.328125 -26.132812 10.203125 -25.0625 L 4.265625 -25.59375 C 4.472656 -26.945312 4.875 -28.1875 5.46875 -29.3125 C 6.0625 -30.4375 6.898438 -31.410156 7.984375 -32.234375 C 9.066406 -33.054688 10.421875 -33.691406 12.046875 -34.140625 C 13.679688 -34.597656 15.660156 -34.828125 17.984375 -34.828125 C 22.273438 -34.828125 25.503906 -33.84375 27.671875 -31.875 C 29.847656 -29.90625 30.9375 -27.054688 30.9375 -23.328125 L 30.9375 -8.59375 C 30.9375 -6.90625 31.15625 -5.632812 31.59375 -4.78125 C 32.039062 -3.925781 32.882812 -3.5 34.125 -3.5 C 34.445312 -3.5 34.765625 -3.519531 35.078125 -3.5625 C 35.390625 -3.613281 35.695312 -3.671875 36 -3.734375 L 36 -0.1875 C 35.28125 -0.0195312 34.566406 0.101562 33.859375 0.1875 C 33.148438 0.269531 32.394531 0.3125 31.59375 0.3125 C 30.519531 0.3125 29.597656 0.171875 28.828125 -0.109375 C 28.066406 -0.390625 27.441406 -0.820312 26.953125 -1.40625 C 26.472656 -1.988281 26.101562 -2.703125 25.84375 -3.546875 C 25.59375 -4.398438 25.4375 -5.398438 25.375 -6.546875 L 25.1875 -6.546875 C 24.570312 -5.441406 23.898438 -4.445312 23.171875 -3.5625 C 22.453125 -2.6875 21.609375 -1.9375 20.640625 -1.3125 C 19.671875 -0.6875 18.566406 -0.207031 17.328125 0.125 C 16.097656 0.457031 14.679688 0.625 13.078125 0.625 Z M 14.375 -3.640625 C 16.1875 -3.640625 17.769531 -3.96875 19.125 -4.625 C 20.488281 -5.289062 21.617188 -6.140625 22.515625 -7.171875 C 23.410156 -8.203125 24.078125 -9.328125 24.515625 -10.546875 C 24.960938 -11.773438 25.1875 -12.945312 25.1875 -14.0625 L 25.1875 -16.875 L 18.953125 -16.75 C 17.566406 -16.726562 16.242188 -16.628906 14.984375 -16.453125 C 13.734375 -16.273438 12.632812 -15.921875 11.6875 -15.390625 C 10.738281 -14.859375 9.984375 -14.117188 9.421875 -13.171875 C 8.867188 -12.222656 8.59375 -10.984375 8.59375 -9.453125 C 8.59375 -7.597656 9.09375 -6.164062 10.09375 -5.15625 C 11.09375 -4.144531 12.519531 -3.640625 14.375 -3.640625 Z M 14.375 -3.640625 "/></g></g></g><g fill="#222222" fill-opacity="1"><g transform="translate(322.307987, 60.589787)"><g><path d="M 17.3125 13.4375 C 15.351562 13.4375 13.613281 13.234375 12.09375 12.828125 C 10.582031 12.429688 9.289062 11.859375 8.21875 11.109375 C 7.144531 10.359375 6.269531 9.46875 5.59375 8.4375 C 4.914062 7.40625 4.429688 6.257812 4.140625 5 L 9.859375 4.171875 C 10.234375 5.753906 11.066406 6.96875 12.359375 7.8125 C 13.660156 8.664062 15.363281 9.09375 17.46875 9.09375 C 18.757812 9.09375 19.929688 8.914062 20.984375 8.5625 C 22.035156 8.207031 22.929688 7.632812 23.671875 6.84375 C 24.410156 6.050781 24.976562 5.019531 25.375 3.75 C 25.769531 2.488281 25.96875 0.953125 25.96875 -0.859375 L 25.96875 -6.359375 L 25.90625 -6.359375 C 25.488281 -5.492188 24.96875 -4.664062 24.34375 -3.875 C 23.726562 -3.082031 22.972656 -2.378906 22.078125 -1.765625 C 21.179688 -1.160156 20.140625 -0.671875 18.953125 -0.296875 C 17.773438 0.0664062 16.429688 0.25 14.921875 0.25 C 12.742188 0.25 10.878906 -0.109375 9.328125 -0.828125 C 7.785156 -1.554688 6.523438 -2.644531 5.546875 -4.09375 C 4.566406 -5.550781 3.847656 -7.359375 3.390625 -9.515625 C 2.941406 -11.679688 2.71875 -14.1875 2.71875 -17.03125 C 2.71875 -19.769531 2.941406 -22.234375 3.390625 -24.421875 C 3.847656 -26.617188 4.585938 -28.476562 5.609375 -30 C 6.628906 -31.53125 7.957031 -32.703125 9.59375 -33.515625 C 11.226562 -34.328125 13.210938 -34.734375 15.546875 -34.734375 C 17.972656 -34.734375 20.070312 -34.175781 21.84375 -33.0625 C 23.625 -31.957031 25 -30.382812 25.96875 -28.34375 L 26.046875 -28.34375 C 26.046875 -28.875 26.0625 -29.460938 26.09375 -30.109375 C 26.125 -30.765625 26.15625 -31.378906 26.1875 -31.953125 C 26.21875 -32.535156 26.253906 -33.035156 26.296875 -33.453125 C 26.335938 -33.878906 26.378906 -34.125 26.421875 -34.1875 L 31.828125 -34.1875 C 31.804688 -34 31.785156 -33.675781 31.765625 -33.21875 C 31.742188 -32.769531 31.722656 -32.226562 31.703125 -31.59375 C 31.679688 -30.96875 31.660156 -30.269531 31.640625 -29.5 C 31.628906 -28.726562 31.625 -27.929688 31.625 -27.109375 L 31.625 -0.984375 C 31.625 3.796875 30.445312 7.394531 28.09375 9.8125 C 25.75 12.226562 22.15625 13.4375 17.3125 13.4375 Z M 25.96875 -17.09375 C 25.96875 -19.476562 25.707031 -21.515625 25.1875 -23.203125 C 24.675781 -24.898438 24 -26.285156 23.15625 -27.359375 C 22.320312 -28.441406 21.359375 -29.234375 20.265625 -29.734375 C 19.179688 -30.242188 18.070312 -30.5 16.9375 -30.5 C 15.476562 -30.5 14.226562 -30.242188 13.1875 -29.734375 C 12.144531 -29.234375 11.28125 -28.4375 10.59375 -27.34375 C 9.914062 -26.257812 9.410156 -24.867188 9.078125 -23.171875 C 8.753906 -21.484375 8.59375 -19.457031 8.59375 -17.09375 C 8.59375 -14.632812 8.753906 -12.566406 9.078125 -10.890625 C 9.410156 -9.210938 9.910156 -7.859375 10.578125 -6.828125 C 11.253906 -5.796875 12.109375 -5.054688 13.140625 -4.609375 C 14.171875 -4.171875 15.40625 -3.953125 16.84375 -3.953125 C 17.976562 -3.953125 19.085938 -4.191406 20.171875 -4.671875 C 21.253906 -5.160156 22.226562 -5.929688 23.09375 -6.984375 C 23.957031 -8.035156 24.648438 -9.394531 25.171875 -11.0625 C 25.703125 -12.726562 25.96875 -14.738281 25.96875 -17.09375 Z M 25.96875 -17.09375 "/></g></g></g><g fill="#222222" fill-opacity="1"><g transform="translate(358.296533, 60.589787)"><g><path d="M 8.71875 -15.890625 C 8.71875 -14.097656 8.898438 -12.445312 9.265625 -10.9375 C 9.640625 -9.4375 10.210938 -8.144531 10.984375 -7.0625 C 11.753906 -5.976562 12.738281 -5.132812 13.9375 -4.53125 C 15.132812 -3.9375 16.578125 -3.640625 18.265625 -3.640625 C 20.734375 -3.640625 22.707031 -4.132812 24.1875 -5.125 C 25.675781 -6.113281 26.679688 -7.363281 27.203125 -8.875 L 32.203125 -7.453125 C 31.847656 -6.503906 31.347656 -5.550781 30.703125 -4.59375 C 30.054688 -3.632812 29.195312 -2.769531 28.125 -2 C 27.050781 -1.238281 25.707031 -0.609375 24.09375 -0.109375 C 22.476562 0.378906 20.535156 0.625 18.265625 0.625 C 13.210938 0.625 9.363281 -0.878906 6.71875 -3.890625 C 4.070312 -6.898438 2.75 -11.375 2.75 -17.3125 C 2.75 -20.519531 3.148438 -23.234375 3.953125 -25.453125 C 4.753906 -27.671875 5.847656 -29.472656 7.234375 -30.859375 C 8.628906 -32.253906 10.253906 -33.265625 12.109375 -33.890625 C 13.960938 -34.515625 15.941406 -34.828125 18.046875 -34.828125 C 20.910156 -34.828125 23.304688 -34.363281 25.234375 -33.4375 C 27.160156 -32.507812 28.707031 -31.226562 29.875 -29.59375 C 31.039062 -27.957031 31.875 -26.035156 32.375 -23.828125 C 32.875 -21.617188 33.125 -19.226562 33.125 -16.65625 L 33.125 -15.890625 Z M 27.234375 -20.25 C 26.921875 -23.851562 26.003906 -26.484375 24.484375 -28.140625 C 22.972656 -29.796875 20.796875 -30.625 17.953125 -30.625 C 17.003906 -30.625 16.007812 -30.46875 14.96875 -30.15625 C 13.925781 -29.851562 12.960938 -29.3125 12.078125 -28.53125 C 11.191406 -27.75 10.441406 -26.691406 9.828125 -25.359375 C 9.210938 -24.023438 8.863281 -22.320312 8.78125 -20.25 Z M 27.234375 -20.25 "/></g></g></g><g fill="#222222" fill-opacity="1"><g transform="translate(394.28508, 60.589787)"><g><path d="M 26.078125 0 L 26.078125 -21.671875 C 26.078125 -23.335938 25.953125 -24.726562 25.703125 -25.84375 C 25.460938 -26.96875 25.066406 -27.867188 24.515625 -28.546875 C 23.972656 -29.234375 23.253906 -29.71875 22.359375 -30 C 21.460938 -30.289062 20.351562 -30.4375 19.03125 -30.4375 C 17.675781 -30.4375 16.457031 -30.195312 15.375 -29.71875 C 14.289062 -29.25 13.363281 -28.566406 12.59375 -27.671875 C 11.820312 -26.773438 11.222656 -25.664062 10.796875 -24.34375 C 10.378906 -23.03125 10.171875 -21.519531 10.171875 -19.8125 L 10.171875 0 L 4.484375 0 L 4.484375 -26.890625 C 4.484375 -27.609375 4.476562 -28.363281 4.46875 -29.15625 C 4.457031 -29.945312 4.441406 -30.691406 4.421875 -31.390625 C 4.398438 -32.097656 4.378906 -32.703125 4.359375 -33.203125 C 4.335938 -33.710938 4.316406 -34.039062 4.296875 -34.1875 L 9.671875 -34.1875 C 9.691406 -34.082031 9.710938 -33.796875 9.734375 -33.328125 C 9.753906 -32.867188 9.78125 -32.335938 9.8125 -31.734375 C 9.84375 -31.140625 9.867188 -30.53125 9.890625 -29.90625 C 9.910156 -29.289062 9.921875 -28.769531 9.921875 -28.34375 L 10.015625 -28.34375 C 10.566406 -29.332031 11.164062 -30.226562 11.8125 -31.03125 C 12.46875 -31.832031 13.226562 -32.507812 14.09375 -33.0625 C 14.957031 -33.625 15.945312 -34.054688 17.0625 -34.359375 C 18.175781 -34.671875 19.472656 -34.828125 20.953125 -34.828125 C 22.847656 -34.828125 24.476562 -34.59375 25.84375 -34.125 C 27.21875 -33.664062 28.347656 -32.953125 29.234375 -31.984375 C 30.117188 -31.015625 30.765625 -29.765625 31.171875 -28.234375 C 31.585938 -26.703125 31.796875 -24.882812 31.796875 -22.78125 L 31.796875 0 Z M 26.078125 0 "/></g></g></g><g fill="#222222" fill-opacity="1"><g transform="translate(430.273627, 60.589787)"><g><path d="M 8.6875 -17.25 C 8.6875 -15.289062 8.828125 -13.488281 9.109375 -11.84375 C 9.398438 -10.207031 9.878906 -8.789062 10.546875 -7.59375 C 11.222656 -6.40625 12.113281 -5.484375 13.21875 -4.828125 C 14.332031 -4.179688 15.695312 -3.859375 17.3125 -3.859375 C 19.332031 -3.859375 21.019531 -4.40625 22.375 -5.5 C 23.738281 -6.59375 24.582031 -8.28125 24.90625 -10.5625 L 30.65625 -10.171875 C 30.46875 -8.765625 30.054688 -7.40625 29.421875 -6.09375 C 28.785156 -4.789062 27.925781 -3.644531 26.84375 -2.65625 C 25.757812 -1.664062 24.4375 -0.867188 22.875 -0.265625 C 21.320312 0.328125 19.519531 0.625 17.46875 0.625 C 14.800781 0.625 12.53125 0.175781 10.65625 -0.71875 C 8.78125 -1.625 7.253906 -2.875 6.078125 -4.46875 C 4.910156 -6.0625 4.0625 -7.9375 3.53125 -10.09375 C 3.007812 -12.25 2.75 -14.59375 2.75 -17.125 C 2.75 -19.425781 2.9375 -21.453125 3.3125 -23.203125 C 3.695312 -24.960938 4.226562 -26.5 4.90625 -27.8125 C 5.59375 -29.132812 6.398438 -30.242188 7.328125 -31.140625 C 8.253906 -32.035156 9.257812 -32.75 10.34375 -33.28125 C 11.4375 -33.820312 12.582031 -34.210938 13.78125 -34.453125 C 14.976562 -34.703125 16.1875 -34.828125 17.40625 -34.828125 C 19.320312 -34.828125 21.03125 -34.5625 22.53125 -34.03125 C 24.03125 -33.507812 25.320312 -32.789062 26.40625 -31.875 C 27.488281 -30.957031 28.363281 -29.875 29.03125 -28.625 C 29.707031 -27.382812 30.1875 -26.046875 30.46875 -24.609375 L 24.609375 -24.171875 C 24.316406 -26.066406 23.570312 -27.570312 22.375 -28.6875 C 21.175781 -29.8125 19.46875 -30.375 17.25 -30.375 C 15.632812 -30.375 14.28125 -30.101562 13.1875 -29.5625 C 12.101562 -29.019531 11.222656 -28.207031 10.546875 -27.125 C 9.878906 -26.039062 9.398438 -24.675781 9.109375 -23.03125 C 8.828125 -21.394531 8.6875 -19.46875 8.6875 -17.25 Z M 8.6875 -17.25 "/></g></g></g><g fill="#222222" fill-opacity="1"><g transform="translate(462.628574, 60.589787)"><g><path d="M 19.09375 0 C 18.289062 2.0625 17.472656 3.921875 16.640625 5.578125 C 15.804688 7.234375 14.875 8.644531 13.84375 9.8125 C 12.8125 10.976562 11.660156 11.875 10.390625 12.5 C 9.128906 13.125 7.675781 13.4375 6.03125 13.4375 C 5.320312 13.4375 4.660156 13.410156 4.046875 13.359375 C 3.429688 13.316406 2.789062 13.222656 2.125 13.078125 L 2.125 8.8125 C 2.519531 8.875 2.96875 8.921875 3.46875 8.953125 C 3.976562 8.984375 4.410156 9 4.765625 9 C 6.429688 9 7.976562 8.378906 9.40625 7.140625 C 10.84375 5.898438 12.097656 3.921875 13.171875 1.203125 L 13.71875 -0.15625 L 0.15625 -34.1875 L 6.21875 -34.1875 L 13.4375 -15.296875 C 13.644531 -14.722656 13.910156 -13.960938 14.234375 -13.015625 C 14.554688 -12.066406 14.878906 -11.117188 15.203125 -10.171875 C 15.535156 -9.222656 15.828125 -8.367188 16.078125 -7.609375 C 16.335938 -6.859375 16.488281 -6.382812 16.53125 -6.1875 C 16.59375 -6.425781 16.742188 -6.882812 16.984375 -7.5625 C 17.222656 -8.25 17.492188 -9.015625 17.796875 -9.859375 C 18.109375 -10.703125 18.421875 -11.554688 18.734375 -12.421875 C 19.054688 -13.285156 19.320312 -14.03125 19.53125 -14.65625 L 26.234375 -34.1875 L 32.234375 -34.1875 Z M 19.09375 0 "/></g></g></g></svg>